<svg height="336.650165" viewBox="0 0 60 68.186998" width="297.044263" xmlns="http://www.w3.org/2000/svg"><path d="m376.325 300.177c2.455 0 4.432-3.015 4.432-6.738s-1.977-6.738-4.432-6.738h-20.825v13.477z" fill="#cc541f" transform="matrix(.73952837 0 0 .73952837 -226.62867776985 -194.28990724711)"/><path d="m162.511 311.594c-.527-.379-45.356-6.195-50.513-6.854-.313-.033-.494-.231-.494-.923v-2.636c0-1 .692-1 .692-1h12.34v-13.481h-19.161c-2.5 0-5.305 1.417-5.964 3.9a11.671 11.671 0 0 0 -.511 4v12.06c0 4.366 2.208 6.9 6.31 7.908.049.016 9.078 1.153 19.342 2.455l16.607 2.125c5.717.741 10.33 1.318 12.027 1.532.445.066.708.329.708 1.021v3.641c0 .857-.61.774-.61.774h-12.125v.774a17.087 17.087 0 0 1 -.428 3.658 9.975 9.975 0 0 1 -3.031 5.42 7.23 7.23 0 0 1 -4.844 1.713h-.082a7.071 7.071 0 0 1 -4.926-1.944 9.661 9.661 0 0 1 -2.389-3.872 16.577 16.577 0 0 1 -.906-5.074v-.675h-20.776c-2.455 0-4.448 3.015-4.448 6.722 0 3.723 1.994 6.755 4.448 6.755h56.51c2.966 0 6.145-3.015 6.145-6.755 0-.1-.016-.181-.016-.28.033-.379.082-.741.082-1.137v-12.331c.002-3.41-.445-6.31-3.987-7.496z" fill="#cc541f" transform="matrix(.73952837 0 0 .73952837 -68.12999939797 -194.28990724711)"/><path d="m280.645 488.685v6.079s.231 7.628-5.964 7.628c-5.931 0-5.981-7.628-5.981-7.628v-7.364z" fill="#008243" transform="matrix(.73952837 0 0 .73952837 -173.01361047322 -318.26000602369)"/><path d="m140.657 218.2v-21.653h22.571s5.058.61 5.058-7.381c0-7.167-5.058-6.969-5.058-6.969h-57.07s-5.058-.2-5.058 6.969c0 7.991 5.058 7.381 5.058 7.381h22.571v20.017z" fill="#008243" transform="matrix(.73952837 0 0 .73952837 -69.48925254203 -129.73943394329)"/><path d="m100.849 635.312v-4.152h-1.549v-.56h3.74v.56h-1.565v4.168h-.626z" transform="matrix(.73952837 0 0 .73952837 -68.37700187355 -406.71277577428)"/><path d="m125.9 635.228v-4.728h.626v1.944h2.455v-1.944h.626v4.728h-.626v-2.228h-2.455v2.224z" transform="matrix(.73952837 0 0 .73952837 -84.80784319821 -406.65139491957)"/><path d="m151.6 635.228 1.812-4.728h.675l1.928 4.728h-.708l-.544-1.433h-1.977l-.527 1.433zm1.367-1.944h1.6l-.494-1.3c-.148-.4-.264-.725-.329-.972a5.713 5.713 0 0 1 -.264.906z" transform="matrix(.73952837 0 0 .73952837 -100.68181966026 -406.65139491957)"/><path d="m182.1 635.228v-4.728h.626v4.728z" transform="matrix(.73952837 0 0 .73952837 -119.52130488601 -406.65139491957)"/><path d="m202.3 633.379.593-.049a1.137 1.137 0 0 0 .445.824 1.544 1.544 0 0 0 .939.264 1.384 1.384 0 0 0 .873-.231.712.712 0 0 0 .3-.56.568.568 0 0 0 -.28-.511 4.77 4.77 0 0 0 -1.17-.4 2.336 2.336 0 0 1 -1.219-.544 1.056 1.056 0 0 1 -.313-.774 1.087 1.087 0 0 1 .494-.972 2.32 2.32 0 0 1 2.488.066 1.375 1.375 0 0 1 .461 1l-.593.049c-.066-.61-.445-.906-1.153-.906-.725 0-1.087.231-1.087.708a.547.547 0 0 0 .231.445 2.858 2.858 0 0 0 .906.313 8.968 8.968 0 0 1 1.021.28 1.414 1.414 0 0 1 .593.445 1.093 1.093 0 0 1 .231.725 1.2 1.2 0 0 1 -.511 1.038 2.075 2.075 0 0 1 -1.236.379 2.1 2.1 0 0 1 -1.5-.461 1.532 1.532 0 0 1 -.513-1.128z" transform="matrix(.73952837 0 0 .73952837 -131.99936707302 -406.40439244399)"/><path d="m232.314 630.6h.626v2.718a3.877 3.877 0 0 1 -.132 1.038 1.29 1.29 0 0 1 -.56.741 2.051 2.051 0 0 1 -1.17.3 1.842 1.842 0 0 1 -1.433-.494 2.325 2.325 0 0 1 -.445-1.582v-2.721h.626v2.718a3.532 3.532 0 0 0 .082.791.84.84 0 0 0 .362.527 1.292 1.292 0 0 0 .758.2 1.278 1.278 0 0 0 .972-.313 1.8 1.8 0 0 0 .3-1.2v-2.723z" transform="matrix(.73952837 0 0 .73952837 -148.61509049018 -406.71351530265)"/><path d="m258.1 635.228v-4.728h.939l1.12 3.344.231.708c.066-.2.148-.445.247-.758l1.137-3.279h.84v4.728h-.593v-3.954l-1.367 3.954h-.593l-1.367-4.02v4.02h-.594z" transform="matrix(.73952837 0 0 .73952837 -166.46656581361 -406.65139491957)"/><path d="m291.4 635.228v-4.728h.939l1.12 3.344.231.708c.066-.2.148-.445.247-.758l1.137-3.279h.84v4.728h-.61v-3.954l-1.367 3.954h-.56l-1.367-4.02v4.02h-.61z" transform="matrix(.73952837 0 0 .73952837 -187.03580789679 -406.65139491957)"/><path d="m325.5 635.228v-4.728h.626v4.728z" transform="matrix(.73952837 0 0 .73952837 -208.09831540276 -406.65139491957)"/><path d="m335.449 635.312v-4.152h-1.549v-.56h3.74v.56h-1.565v4.168h-.626z" transform="matrix(.73952837 0 0 .73952837 -213.28758597505 -406.71351530265)"/><path d="m368.572 633.049v-.56h1.993v1.746a3.069 3.069 0 0 1 -1.961.741 2.323 2.323 0 0 1 -1.746-.659 2.361 2.361 0 0 1 -.659-1.763 2.639 2.639 0 0 1 .593-1.746 2.172 2.172 0 0 1 1.779-.708 1.753 1.753 0 0 1 1.928 1.4l-.56.148a1.305 1.305 0 0 0 -1.367-1.021 1.626 1.626 0 0 0 -1.269.494 2 2 0 0 0 -.445 1.384 1.882 1.882 0 0 0 .494 1.45 1.778 1.778 0 0 0 1.236.445 2.036 2.036 0 0 0 1.384-.494v-.857z" transform="matrix(.73952837 0 0 .73952837 -233.23858234091 -406.40365291562)"/><path d="m398.3 635.228v-4.728h2.092a4.021 4.021 0 0 1 .84.082 1.119 1.119 0 0 1 .593.412 1.258 1.258 0 0 1 .247.791q0 1.112-1.335 1.285a2.169 2.169 0 0 1 .89.857l.824 1.285h-.791l-.626-.989a5.163 5.163 0 0 0 -.544-.758 1.025 1.025 0 0 0 -.362-.28 1.322 1.322 0 0 0 -.494-.066h-.725v2.092h-.61zm.626-2.636h1.351c.774 0 1.17-.264 1.17-.791 0-.511-.329-.774-1.021-.774h-1.5z" transform="matrix(.73952837 0 0 .73952837 -253.06607746898 -406.65139491957)"/><path d="m426 632.521a3.062 3.062 0 0 1 .28-1.335 2.1 2.1 0 0 1 .774-.873 2.287 2.287 0 0 1 1.2-.313 2.113 2.113 0 0 1 1.615.675 2.448 2.448 0 0 1 .626 1.779 2.375 2.375 0 0 1 -.675 1.829 2.242 2.242 0 0 1 -1.582.61 2.081 2.081 0 0 1 -1.631-.692 2.477 2.477 0 0 1 -.607-1.68zm.643 0a2.011 2.011 0 0 0 .428 1.318 1.444 1.444 0 0 0 1.17.511 1.4 1.4 0 0 0 1.219-.56 2.3 2.3 0 0 0 .412-1.351 2 2 0 0 0 -.462-1.439 1.5 1.5 0 0 0 -1.137-.478 1.4 1.4 0 0 0 -1.236.56 2.525 2.525 0 0 0 -.394 1.439z" transform="matrix(.73952837 0 0 .73952837 -270.17654536567 -406.34227206091)"/><path d="m461.481 630.6h.626v2.718a3.877 3.877 0 0 1 -.132 1.038 1.29 1.29 0 0 1 -.56.741 1.994 1.994 0 0 1 -1.153.3 1.842 1.842 0 0 1 -1.433-.494 2.328 2.328 0 0 1 -.428-1.582v-2.721h.626v2.718a3.636 3.636 0 0 0 .066.791.839.839 0 0 0 .362.527 1.292 1.292 0 0 0 .758.2 1.278 1.278 0 0 0 .972-.313 1.8 1.8 0 0 0 .3-1.2v-2.723z" transform="matrix(.73952837 0 0 .73952837 -290.18966211461 -406.71277577428)"/><path d="m487.2 635.228v-4.728h1.779a3.779 3.779 0 0 1 .956.1 1.17 1.17 0 0 1 .626.445 1.391 1.391 0 0 1 .247.824c0 .956-.593 1.433-1.763 1.433h-1.219v1.928zm.626-2.471h1.219c.741 0 1.12-.28 1.12-.857a.878.878 0 0 0 -.132-.494.641.641 0 0 0 -.329-.264 2.17 2.17 0 0 0 -.659-.066h-1.219z" transform="matrix(.73952837 0 0 .73952837 -307.97901705496 -406.65139491957)"/></svg>